<svg id="レイヤー_1" data-name="レイヤー 1" xmlns="http://www.w3.org/2000/svg" viewBox="0 0 90.71 90.71"><defs><style>.cls-1{fill:#00a0e9;}</style></defs><path class="cls-1" d="M5.43,31.77A3.23,3.23,0,0,0,8.49,34a3.28,3.28,0,0,0,1.06-.18,3.25,3.25,0,0,0,2-4.12h0c-2.61-7.56-2.18-13.6,1.2-17,3.74-3.77,11-4.25,19.79-1.3,1.39.46,2.73.95,4,1.47,2.17-1.54,4.37-3,6.58-4.24A84.48,84.48,0,0,0,34.6,5.18C23.33,1.43,13.69,2.48,8.15,8.08,2.94,13.35,2,21.76,5.43,31.77Z"/><path class="cls-1" d="M56.11,5.18a60.56,60.56,0,0,0-7.86,3.31c-.84.42-1.69.86-2.53,1.33-2.2,1.21-4.39,2.57-6.57,4-.75.52-1.5,1.05-2.25,1.6A97.8,97.8,0,0,0,22.21,28.71h0A3.24,3.24,0,0,0,27,33.07h0A91,91,0,0,1,43.57,18.7c.74-.49,1.49-1,2.23-1.43l.17.1c.7.41,1.39.84,2.06,1.28a67.34,67.34,0,0,1,15.32,14h0a3.24,3.24,0,0,0,5-4.12h0a76,76,0,0,0-13.8-13.28c-.73-.54-1.47-1.06-2.23-1.56.85-.4,1.7-.77,2.54-1.12,1.11-.46,2.21-.88,3.3-1.24,8.84-2.95,16-2.48,19.78,1.3,3.39,3.42,3.82,9.46,1.21,17h0a3.24,3.24,0,0,0,6.13,2.11h0c3.46-10,2.49-18.42-2.73-23.69C77,2.48,67.38,1.43,56.11,5.18Z"/><path class="cls-1" d="M75.05,52a7.66,7.66,0,1,0-7.66-7.66A7.66,7.66,0,0,0,75.05,52Z"/><path class="cls-1" d="M8.61,44.09a7.66,7.66,0,1,0,7.66-7.66A7.66,7.66,0,0,0,8.61,44.09Z"/><path class="cls-1" d="M81.1,54.82a3.23,3.23,0,0,0-2,4.1c2.87,8.62,2.26,15.72-1.67,19.47C73.64,82,67,82.22,59,79.14q-2.57-1-5-2.11c-2,1.48-4.11,2.85-6.28,4.13a90.38,90.38,0,0,0,8.89,4A34.66,34.66,0,0,0,69,87.74c5.15,0,9.57-1.56,12.82-4.66C87.68,77.53,88.9,68,85.2,56.87A3.24,3.24,0,0,0,81.1,54.82Z"/><path class="cls-1" d="M53.78,74.3A85.49,85.49,0,0,0,68.47,59.9h0a3.24,3.24,0,1,0-5-4.09h0a76.94,76.94,0,0,1-16,15c-.64.45-1.29.88-1.94,1.3L43.29,70.8l-.89-.53A78.1,78.1,0,0,1,27.26,55.81h0a3.24,3.24,0,1,0-5,4.09h0A85.84,85.84,0,0,0,36.92,74.3c.71.53,1.42,1,2.14,1.56-.79.4-1.59.79-2.41,1.17-1.61.75-3.25,1.45-5,2.11-7.93,3.08-14.62,2.81-18.36-.75-3.94-3.75-4.54-10.85-1.67-19.47a3.24,3.24,0,1,0-6.15-2.05C1.81,68,3,77.53,8.86,83.08c3.24,3.1,7.67,4.66,12.82,4.66A34.66,34.66,0,0,0,34,85.19a90.38,90.38,0,0,0,8.89-4c.82-.42,1.63-.86,2.42-1.31,2.18-1.24,4.27-2.56,6.3-4Q52.73,75.1,53.78,74.3Z"/></svg>