<svg id="レイヤー_1" data-name="レイヤー 1" xmlns="http://www.w3.org/2000/svg" viewBox="0 0 402.52 90.71"><defs><style>.cls-1{fill:#00a0e9;}</style></defs><path class="cls-1" d="M157.13,53.56a1.37,1.37,0,0,1,.52-2.25,19.54,19.54,0,0,0,10-6.55q4-5.2,4-13.57a25.17,25.17,0,0,0-1.5-8.75,20.16,20.16,0,0,0-12-12.11,29,29,0,0,0-10.69-1.8H119.14a1.23,1.23,0,0,0-1.29,1.26V80.06a1.89,1.89,0,0,0,1.83,1.8h15.95a1.23,1.23,0,0,0,1.28-1.26V58.42c0-1.47,2-1.73,2.83-.38L154.53,81a1.9,1.9,0,0,0,1.55.88h20.07c1.19,0,1.69-1.29.91-2.31Zm-8-14.59c-2,1.56-4.9,2.33-8.66,2.33h-1.77a1.89,1.89,0,0,1-1.83-1.79v-15a1.25,1.25,0,0,1,1.29-1.27h2.31q5.64,0,8.66,2.34a8,8,0,0,1,3,6.71A8,8,0,0,1,149.17,39Z"/><path class="cls-1" d="M245,8.53H229.14a1.23,1.23,0,0,0-1.29,1.26V48.4q0,3.21-.24,6.57a17.53,17.53,0,0,1-1.51,6.08,10.5,10.5,0,0,1-3.84,4.42c-1.72,1.14-4.17,1.7-7.34,1.7s-5.65-.56-7.4-1.7a10.1,10.1,0,0,1-3.84-4.42A18,18,0,0,1,202.22,55Q202,51.61,202,48.4V10.33a1.89,1.89,0,0,0-1.83-1.8h-16a1.23,1.23,0,0,0-1.28,1.26V51q0,17.11,7.88,25t24.12,7.87Q231.15,83.9,239,76t7.83-25V10.33A1.89,1.89,0,0,0,245,8.53Z"/><path class="cls-1" d="M297.57,53.56a1.37,1.37,0,0,1,.51-2.25,19.46,19.46,0,0,0,10.05-6.55q4-5.2,4-13.57a25,25,0,0,0-1.51-8.75,20.59,20.59,0,0,0-4.47-7.2,20.78,20.78,0,0,0-7.54-4.91A29.1,29.1,0,0,0,288,8.53H259.58a1.23,1.23,0,0,0-1.29,1.26V80.06a1.89,1.89,0,0,0,1.83,1.8h15.95a1.23,1.23,0,0,0,1.28-1.26V58.42c0-1.47,2-1.73,2.83-.38L295,81a1.89,1.89,0,0,0,1.54.88h20.08c1.18,0,1.69-1.29.91-2.31Zm-8-14.59c-2,1.56-4.9,2.33-8.66,2.33h-1.77a1.89,1.89,0,0,1-1.83-1.79v-15a1.24,1.24,0,0,1,1.29-1.27H281q5.64,0,8.66,2.34a8,8,0,0,1,3,6.71A8,8,0,0,1,289.61,39Z"/><path class="cls-1" d="M399.58,79.56,373.19,10.22A1.92,1.92,0,0,0,371.47,9H353.08a1.25,1.25,0,0,0-1.2.79L325.5,79.12a1.82,1.82,0,0,0,1.74,2.28h16.52a1.24,1.24,0,0,0,1.22-.83l3.75-10.93a1.22,1.22,0,0,1,1.21-.82H374.6a1.91,1.91,0,0,1,1.73,1.28l3.44,10a1.92,1.92,0,0,0,1.74,1.28H398.4A1.28,1.28,0,0,0,399.58,79.56Zm-30.5-25.05H356.54a1.83,1.83,0,0,1-1.75-2.25l6.27-17.88c.45-1.29,2.44-1,2.94.45l6.27,17.88A1.28,1.28,0,0,1,369.08,54.51Z"/><path class="cls-1" d="M4.87,31.77A3.24,3.24,0,1,0,11,29.66h0c-2.61-7.56-2.18-13.6,1.21-17C15.94,8.87,23.15,8.39,32,11.34c1.39.46,2.73.95,4,1.47,2.17-1.54,4.37-3,6.58-4.24A84.48,84.48,0,0,0,34,5.18C22.77,1.43,13.13,2.48,7.6,8.08,2.38,13.35,1.41,21.76,4.87,31.77Z"/><path class="cls-1" d="M55.55,5.18a60.56,60.56,0,0,0-7.86,3.31c-.84.42-1.69.86-2.53,1.33-2.2,1.21-4.39,2.57-6.57,4-.75.52-1.5,1.05-2.25,1.6A97.8,97.8,0,0,0,21.65,28.71h0a3.24,3.24,0,0,0,4.8,4.36h0A91.34,91.34,0,0,1,43,18.7c.74-.49,1.49-1,2.23-1.43l.17.1c.7.41,1.39.84,2.06,1.28a67.34,67.34,0,0,1,15.32,14h0a3.24,3.24,0,0,0,5-4.12h0A76.26,76.26,0,0,0,54,15.26c-.74-.54-1.48-1.06-2.23-1.56.84-.4,1.69-.77,2.53-1.12,1.11-.46,2.21-.88,3.3-1.24,8.84-2.95,16.05-2.48,19.79,1.3,3.38,3.42,3.81,9.46,1.2,17h0a3.24,3.24,0,0,0,6.13,2.11h0c3.46-10,2.49-18.42-2.73-23.69C76.46,2.48,66.82,1.43,55.55,5.18Z"/><path class="cls-1" d="M74.49,52a7.66,7.66,0,1,0-7.66-7.66A7.65,7.65,0,0,0,74.49,52Z"/><path class="cls-1" d="M8.06,44.09a7.66,7.66,0,1,0,7.65-7.66A7.65,7.65,0,0,0,8.06,44.09Z"/><path class="cls-1" d="M80.54,54.82a3.23,3.23,0,0,0-2.05,4.1c2.87,8.62,2.27,15.72-1.67,19.47-3.74,3.56-10.43,3.83-18.36.75-1.71-.66-3.35-1.36-5-2.11-2,1.48-4.11,2.85-6.28,4.13a90.38,90.38,0,0,0,8.89,4,34.66,34.66,0,0,0,12.36,2.55c5.15,0,9.58-1.56,12.82-4.66,5.83-5.55,7-15.11,3.35-26.21A3.24,3.24,0,0,0,80.54,54.82Z"/><path class="cls-1" d="M53.22,74.3a85.89,85.89,0,0,0,14.7-14.4h0a3.24,3.24,0,1,0-5-4.09h0a76.94,76.94,0,0,1-16,15c-.64.45-1.29.88-1.94,1.3L42.73,70.8l-.89-.53A78.1,78.1,0,0,1,26.7,55.81h0a3.24,3.24,0,1,0-5,4.09h0a85.89,85.89,0,0,0,14.7,14.4q1.05.8,2.13,1.56c-.79.4-1.59.79-2.41,1.17q-2.4,1.13-5,2.11C23.2,82.22,16.51,82,12.77,78.39,8.84,74.64,8.23,67.54,11.1,58.92A3.24,3.24,0,1,0,5,56.87C1.25,68,2.47,77.53,8.3,83.08c3.25,3.1,7.67,4.66,12.82,4.66a34.66,34.66,0,0,0,12.36-2.55,90.38,90.38,0,0,0,8.89-4c.82-.42,1.63-.86,2.43-1.31,2.17-1.24,4.27-2.56,6.29-4Q52.17,75.1,53.22,74.3Z"/></svg>