<?xml version="1.0" encoding="utf-8"?>
<!-- Generator: Adobe Illustrator 24.1.3, SVG Export Plug-In . SVG Version: 6.00 Build 0)  -->
<svg version="1.1" id="レイヤー_1" xmlns="http://www.w3.org/2000/svg" xmlns:xlink="http://www.w3.org/1999/xlink" x="0px"
	 y="0px" viewBox="0 0 18.33 15" style="enable-background:new 0 0 18.33 15;" xml:space="preserve">
<style type="text/css">
	.st0{fill-rule:evenodd;clip-rule:evenodd;fill:#37352F;}
</style>
<path class="st0" d="M15.83,0H2.5C1.12,0,0,1.12,0,2.5v10C0,13.88,1.12,15,2.5,15h13.33c1.38,0,2.5-1.12,2.5-2.5v-10
	C18.33,1.12,17.21,0,15.83,0z M2.5,1.67h13.33c0.32,0,0.6,0.19,0.74,0.47l-7.4,5.18l-7.4-5.18C1.9,1.86,2.18,1.67,2.5,1.67z
	 M15.83,13.33H2.5c-0.46,0-0.83-0.38-0.83-0.83V4.1l7.02,4.92c0.29,0.2,0.67,0.2,0.96,0l7.02-4.92v8.4
	C16.67,12.96,16.29,13.33,15.83,13.33z"/>
</svg>
